# xmcd
#
# Track frame offsets:
#	150
#	12984
#	33792
#	50145
#	72471
#	88148
#	94776
#	112512
#	128967
#	160013
#	180964
#
# Disc length: 2627 seconds
#
# Revision: 0
# Processed by: cddbd v1.5.2PL0 Copyright (c) Steve Scherf et al.
# Submitted via: EasyCDDAExtractor 10.0.2.1
#
DISCID=830a410b
DTITLE=Adrianne Archie - Warm Winter
DYEAR=2006
DGENRE=Gospel
TTITLE0=Warm Winter
TTITLE1=Wonderful
TTITLE2=Gloria
TTITLE3=Gloria Revisited
TTITLE4=Without You
TTITLE5=Silent Night
TTITLE6=Saviour of All
TTITLE7=Sing Along
TTITLE8=Do Adore
TTITLE9=Everything is White
TTITLE10=Alls That Matters
EXTD=
EXTT0=
EXTT1=
EXTT2=
EXTT3=
EXTT4=
EXTT5=
EXTT6=
EXTT7=
EXTT8=
EXTT9=
EXTT10=
PLAYORDER=
